<?xml version="1.0" standalone="no"?>
<!DOCTYPE svg PUBLIC "-//W3C//DTD SVG 20010904//EN"
 "http://www.w3.org/TR/2001/REC-SVG-20010904/DTD/svg10.dtd">
<svg version="1.0" xmlns="http://www.w3.org/2000/svg"
 width="192.000000pt" height="192.000000pt" viewBox="0 0 192.000000 192.000000"
 preserveAspectRatio="xMidYMid meet">
<metadata>
Created by potrace 1.16, written by Peter Selinger 2001-2019
</metadata>
<g transform="translate(0.000000,192.000000) scale(0.016000,-0.016000)"
fill="#000000" stroke="none">
<path d="M3935 10793 c-91 -7 -236 -37 -331 -68 -198 -65 -354 -159 -514 -311
-436 -415 -554 -1059 -295 -1602 137 -286 359 -509 654 -657 30 -15 135 -53
234 -86 278 -91 446 -190 616 -360 237 -236 374 -536 405 -882 l5 -59 -82 -38
c-99 -46 -204 -81 -318 -106 -119 -26 -418 -27 -539 -1 -264 57 -491 177 -697
371 -133 125 -237 201 -359 263 -131 67 -220 98 -372 129 -292 60 -552 20
-857 -131 -139 -69 -303 -185 -390 -276 -27 -28 -45 -49 -40 -46 13 7 37 -41
24 -49 -5 -3 -9 -372 -9 -890 0 -544 -4 -883 -9 -879 -5 3 -13 0 -17 -6 -4 -8
-3 -9 4 -5 7 4 12 1 12 -9 0 -9 4 -13 10 -10 5 3 10 -1 10 -10 0 -10 -5 -14
-12 -10 -7 3 21 -26 62 -65 193 -183 453 -312 718 -355 152 -25 409 -17 548
18 256 65 452 175 664 372 296 275 597 398 975 398 224 0 420 -44 605 -136
l85 -42 -3 -65 c-5 -94 -38 -258 -74 -358 -118 -336 -364 -620 -675 -780 -58
-30 -181 -79 -281 -111 -98 -33 -210 -75 -248 -94 -254 -128 -495 -366 -623
-617 -106 -206 -144 -367 -145 -605 -1 -292 73 -538 235 -786 74 -114 259
-301 369 -374 245 -163 497 -239 790 -238 172 0 292 20 454 74 521 174 894
673 932 1244 8 123 -7 256 -45 413 -73 299 -66 565 21 826 142 428 512 776
953 897 92 25 247 88 243 99 -2 4 -104 172 -228 374 -211 344 -227 366 -250
361 -119 -25 -214 -25 -305 0 -18 5 -110 -148 -752 -1247 l-731 -1252 53 -58
c57 -61 107 -153 124 -228 16 -67 13 -189 -5 -251 -26 -86 -59 -143 -125 -214
-112 -119 -273 -177 -434 -155 -193 27 -370 185 -420 375 -85 328 186 657 520
631 44 -3 88 -7 98 -9 18 -2 237 365 1270 2128 116 198 215 368 221 377 8 13
1 26 -35 65 -54 58 -91 119 -114 191 l-17 52 -1459 0 -1459 0 -6 -27 c-16 -68
-75 -170 -133 -230 -196 -200 -516 -200 -715 0 -204 204 -203 512 2 717 265
265 710 162 833 -192 l23 -66 246 -5 c135 -2 791 -3 1458 -3 l1214 1 18 53
c25 70 58 126 109 184 l42 47 -219 388 c-120 213 -449 796 -731 1295 l-513
907 -26 -10 c-14 -5 -60 -12 -101 -16 -287 -21 -541 215 -541 502 0 142 46
250 151 358 230 232 600 191 781 -87 123 -190 101 -441 -54 -611 l-47 -51 732
-1297 c558 -989 736 -1295 747 -1291 8 3 43 11 78 17 55 10 153 4 231 -15 9
-2 94 137 232 376 121 209 219 381 219 382 0 6 -161 67 -275 103 -325 104
-573 284 -752 547 -172 253 -247 492 -246 784 1 147 6 180 64 435 31 134 34
452 6 583 -94 439 -421 827 -840 998 -195 79 -425 115 -632 97z"/>
<path d="M9725 7375 c-440 -72 -829 -354 -1030 -746 -82 -161 -145 -375 -145
-495 l0 -34 438 0 438 0 18 59 c57 190 238 332 445 347 339 26 611 -302 526
-631 -64 -242 -318 -414 -559 -375 -93 15 -154 40 -230 94 -80 57 -150 151
-181 244 l-23 67 -436 3 -436 2 0 -39 c0 -59 27 -200 56 -293 37 -121 124
-290 198 -388 79 -105 236 -257 337 -327 261 -179 610 -273 911 -244 648 63
1146 530 1244 1166 19 122 13 424 -10 525 -64 276 -169 466 -370 666 -166 166
-327 269 -529 338 -195 67 -470 92 -662 61z"/>
<path d="M6569 6788 c-118 -205 -216 -379 -217 -386 -2 -8 12 -31 31 -51 47
-47 101 -139 117 -196 l13 -45 441 0 442 0 -9 73 c-14 114 -62 289 -106 387
-93 211 -303 467 -472 574 l-26 16 -214 -372z"/>
<path d="M6517 5913 c-2 -5 -10 -26 -17 -48 -21 -65 -57 -130 -105 -189 -25
-31 -45 -59 -45 -62 0 -4 98 -177 217 -385 l217 -378 45 32 c25 18 96 82 157
142 208 207 325 428 383 720 11 55 21 116 23 135 l3 35 -437 3 c-240 1 -439
-1 -441 -5z"/>
</g>
</svg>
